<svg width="68" height="68" viewBox="0 0 68 68" fill="none" xmlns="http://www.w3.org/2000/svg">
<rect width="68" height="68" fill="#090909"/>
<path d="M11.176 45.168L10.78 45.036C10.7507 45.124 10.6773 45.1533 10.56 45.124C10.472 45.124 10.3987 45.0947 10.34 45.036C10.1933 44.8013 10.032 44.6987 9.856 44.728C9.68 44.7867 9.44533 44.7573 9.152 44.64H9.108C9.02 44.64 8.91733 44.6547 8.8 44.684C8.712 44.7427 8.624 44.7573 8.536 44.728L8.228 44.464C8.228 44.4933 8.19867 44.508 8.14 44.508C8.052 44.508 7.964 44.4933 7.876 44.464C7.788 44.4347 7.75867 44.4053 7.788 44.376L7.04 43.98L6.952 44.024L6.468 43.496C6.43867 43.5253 6.40933 43.54 6.38 43.54C6.32133 43.54 6.26267 43.496 6.204 43.408C6.14533 43.3493 6.10133 43.32 6.072 43.32C5.896 43.1733 5.69067 43.0267 5.456 42.88C5.25067 42.7627 5.04533 42.6307 4.84 42.484C4.81067 42.4547 4.796 42.396 4.796 42.308C4.796 42.2493 4.76667 42.2053 4.708 42.176C4.62 42.088 4.51733 42 4.4 41.912C4.28267 41.824 4.20933 41.7213 4.18 41.604L4.004 41.648C3.828 41.3253 3.62267 41.032 3.388 40.768C3.15333 40.504 3.05067 40.152 3.08 39.712H2.992L2.42 39.492V39.36C2.39067 39.36 2.34667 39.3747 2.288 39.404C2.22933 39.404 2.156 39.3893 2.068 39.36C1.86267 39.272 1.672 39.1693 1.496 39.052C1.32 38.9053 1.188 38.7293 1.1 38.524C1.07067 38.436 1.02667 38.392 0.968 38.392C0.938667 38.392 0.909333 38.3773 0.88 38.348C0.821333 38.2013 0.733333 38.0693 0.616 37.952C0.498667 37.8347 0.454667 37.688 0.484 37.512L0.616 36.412C0.850667 36.148 1.02667 36.016 1.144 36.016C1.26133 36.016 1.32 36.148 1.32 36.412L1.056 36.852L1.1 37.38C1.15867 37.4387 1.24667 37.468 1.364 37.468C1.48133 37.468 1.56933 37.4533 1.628 37.424L1.584 37.688L1.76 37.996L1.804 37.908L2.068 37.996L2.288 38.304C2.34667 38.1867 2.40533 38.1867 2.464 38.304C2.52267 38.392 2.552 38.436 2.552 38.436L2.772 38.26C2.74267 38.1133 2.71333 37.9667 2.684 37.82C2.65467 37.644 2.64 37.4827 2.64 37.336C2.64 37.1307 2.65467 36.984 2.684 36.896C2.772 36.5733 2.80133 36.324 2.772 36.148C2.772 36.148 2.83067 36.0453 2.948 35.84C3.06533 35.6053 3.18267 35.4587 3.3 35.4L3.652 35.18L3.74 35.312C3.71067 35.3413 3.652 35.4293 3.564 35.576C3.476 35.7227 3.40267 35.8253 3.344 35.884C3.10933 36.3827 3.02133 36.8813 3.08 37.38C3.08 37.4093 3.08 37.4533 3.08 37.512C3.10933 37.5413 3.10933 37.6 3.08 37.688V38.304C3.13867 38.3333 3.168 38.4507 3.168 38.656C3.168 38.832 3.19733 38.9053 3.256 38.876C3.40267 38.8467 3.52 38.8907 3.608 39.008C3.72533 39.096 3.81333 39.052 3.872 38.876L4.18 39.228H4.62C4.59067 39.2867 4.664 39.3453 4.84 39.404C5.04533 39.4333 5.25067 39.448 5.456 39.448C5.66133 39.448 5.764 39.448 5.764 39.448L6.028 39.668C6.028 39.6387 6.072 39.668 6.16 39.756H6.204C6.292 39.756 6.38 39.7267 6.468 39.668C6.58533 39.6093 6.67333 39.58 6.732 39.58C6.87867 39.6093 7.02533 39.668 7.172 39.756C7.348 39.844 7.48 39.844 7.568 39.756L7.92 39.888L8.316 39.668C8.37467 39.7267 8.492 39.7853 8.668 39.844C8.72667 39.8733 8.81467 39.888 8.932 39.888C9.196 39.888 9.38667 39.8293 9.504 39.712L9.68 39.932C10.0907 39.9027 10.5013 39.9027 10.912 39.932C11.352 39.932 11.7627 39.932 12.144 39.932C12.4667 39.932 12.7747 39.932 13.068 39.932C13.3907 39.9027 13.6987 39.8733 13.992 39.844C14.08 39.844 14.1533 39.844 14.212 39.844C14.2707 39.8147 14.3147 39.8 14.344 39.8C14.5493 39.8 14.784 39.7413 15.048 39.624C15.312 39.5067 15.532 39.448 15.708 39.448C15.7667 39.448 15.8987 39.404 16.104 39.316C16.3387 39.1987 16.412 39.272 16.324 39.536L15.884 39.756L15.752 39.712C15.7227 39.7413 15.5907 39.8147 15.356 39.932C15.1507 40.02 15.0333 40.0347 15.004 39.976L14.08 40.108C13.9627 40.1373 13.7867 40.1667 13.552 40.196C13.3173 40.2253 13.2 40.2253 13.2 40.196L12.804 40.284C12.804 40.2547 12.7747 40.24 12.716 40.24C12.5987 40.24 12.4227 40.284 12.188 40.372C11.9827 40.46 11.8653 40.4893 11.836 40.46C11.8067 40.4013 11.66 40.4013 11.396 40.46C11.1613 40.4893 10.9267 40.504 10.692 40.504C10.34 40.504 10.1493 40.4453 10.12 40.328L9.768 40.46C9.82667 40.4013 9.79733 40.372 9.68 40.372C9.592 40.3427 9.51867 40.3427 9.46 40.372L9.416 40.592C9.35733 40.6213 9.29867 40.6213 9.24 40.592C9.18133 40.5627 9.12267 40.5333 9.064 40.504C8.888 40.416 8.60933 40.372 8.228 40.372C7.84667 40.372 7.48 40.3573 7.128 40.328C6.776 40.2987 6.556 40.2253 6.468 40.108L6.116 40.284C5.99867 40.284 5.82267 40.2693 5.588 40.24C5.38267 40.1813 5.22133 40.1373 5.104 40.108C4.89867 40.0493 4.664 39.9907 4.4 39.932C4.16533 39.8733 3.93067 39.8587 3.696 39.888L3.916 40.24V40.328C4.12133 40.4453 4.28267 40.636 4.4 40.9C4.54667 41.1347 4.76667 41.2227 5.06 41.164L5.192 41.736L5.544 41.956C5.57333 41.9267 5.60267 41.912 5.632 41.912C5.72 41.912 5.86667 41.9707 6.072 42.088C6.27733 42.2053 6.43867 42.2933 6.556 42.352L6.688 42.264L6.908 42.66C6.93733 42.6307 6.96667 42.616 6.996 42.616C7.084 42.616 7.18667 42.6453 7.304 42.704C7.42133 42.7627 7.49467 42.7773 7.524 42.748L7.832 42.836L8.14 42.748C8.25733 42.924 8.33067 43.056 8.36 43.144C8.38933 43.232 8.43333 43.2907 8.492 43.32C8.63867 43.3787 8.63867 43.4227 8.492 43.452C8.37467 43.4813 8.316 43.5253 8.316 43.584L8.36 43.672H8.756C8.756 43.584 8.85867 43.5107 9.064 43.452C9.29867 43.4227 9.53333 43.408 9.768 43.408C10.12 43.408 10.3253 43.4373 10.384 43.496C10.5013 43.5547 10.5307 43.5547 10.472 43.496L10.868 43.452L11.132 43.672C11.1907 43.584 11.2493 43.54 11.308 43.54C11.396 43.54 11.4693 43.5547 11.528 43.584C11.616 43.6427 11.66 43.672 11.66 43.672C11.7187 43.7013 11.7773 43.6427 11.836 43.496C11.924 43.3787 12.0267 43.3347 12.144 43.364L12.32 43.408C12.5253 43.408 12.7307 43.3787 12.936 43.32C13.1707 43.2613 13.3027 43.32 13.332 43.496L13.64 43.276L13.86 43.32L13.772 43.672C13.772 43.7893 13.7867 43.848 13.816 43.848C13.8747 43.848 13.948 43.7453 14.036 43.54C14.1533 43.364 14.212 43.3493 14.212 43.496L14.52 43.144C14.608 43.2027 14.7253 43.232 14.872 43.232C15.1067 43.232 15.3267 43.144 15.532 42.968C15.7373 42.8213 15.9867 42.7187 16.28 42.66L16.324 42.748C16.3827 42.7187 16.4413 42.6893 16.5 42.66C16.588 42.66 16.632 42.6893 16.632 42.748L17.116 42.704C17.2333 42.616 17.424 42.5133 17.688 42.396C17.9813 42.2787 18.1867 42.1907 18.304 42.132L18.348 41.956C18.348 41.956 18.4213 41.956 18.568 41.956C18.744 41.9267 18.8467 41.8973 18.876 41.868V41.824C18.876 41.7653 18.876 41.6773 18.876 41.56C18.876 41.4133 18.9347 41.3547 19.052 41.384L19.272 41.516C19.536 41.428 19.712 41.3107 19.8 41.164C19.9173 40.988 20.0933 40.8267 20.328 40.68C20.416 40.6213 20.4893 40.548 20.548 40.46C20.636 40.372 20.7387 40.3133 20.856 40.284C20.8853 40.284 20.9293 40.328 20.988 40.416C21.076 40.504 21.164 40.4893 21.252 40.372L21.296 39.932L21.692 39.8L21.912 39.492C21.912 39.492 21.912 39.5067 21.912 39.536C21.9413 39.536 21.9707 39.536 22 39.536C22.1173 39.536 22.2493 39.4187 22.396 39.184C22.5427 38.9493 22.572 38.788 22.484 38.7L22.924 38.216C22.8947 38.04 22.9533 37.82 23.1 37.556C23.276 37.292 23.364 36.9693 23.364 36.588C23.364 36.3533 23.2907 36.0747 23.144 35.752C22.9973 35.4293 22.704 35.0773 22.264 34.696L22.044 34.564C21.692 34.3293 21.3693 34.1533 21.076 34.036C20.812 33.8893 20.46 33.7427 20.02 33.596C20.02 33.596 19.976 33.5667 19.888 33.508L18.656 33.156C18.5387 33.068 18.2747 32.9947 17.864 32.936C17.4533 32.8773 17.1747 32.8333 17.028 32.804C16.9693 32.7747 16.896 32.7307 16.808 32.672C16.7493 32.6133 16.6907 32.628 16.632 32.716L16.236 32.496C16.1773 32.5253 16.104 32.54 16.016 32.54C15.9573 32.54 15.8987 32.5253 15.84 32.496C15.8107 32.4667 15.7227 32.452 15.576 32.452C15.3707 32.4227 15.0333 32.3347 14.564 32.188C14.124 32.0413 13.8747 31.9973 13.816 32.056L12.672 31.484L12.54 31.528L12.144 31.308C12.232 31.4253 12.1733 31.4547 11.968 31.396C11.7627 31.308 11.528 31.2053 11.264 31.088C11 30.9413 10.7947 30.8533 10.648 30.824C10.1493 30.6187 9.69467 30.3253 9.284 29.944C8.90267 29.5627 8.712 29.0933 8.712 28.536C8.712 28.0373 8.74133 27.6853 8.8 27.48C8.85867 27.2747 8.932 27.0987 9.02 26.952C9.13733 26.8053 9.24 26.5853 9.328 26.292C9.38667 26.204 9.46 26.116 9.548 26.028C9.66533 25.9107 9.73867 25.7933 9.768 25.676L10.12 25.456C10.1493 25.3093 10.2227 25.1627 10.34 25.016C10.4867 24.8693 10.6187 24.7667 10.736 24.708C11.1173 24.532 11.5427 24.2387 12.012 23.828C12.5107 23.388 12.9947 23.0653 13.464 22.86C13.5813 22.8013 13.684 22.7573 13.772 22.728C13.86 22.6693 13.9627 22.6253 14.08 22.596L14.124 22.684C14.388 22.596 14.828 22.464 15.444 22.288C16.06 22.0827 16.7347 21.8773 17.468 21.672C18.2307 21.4667 18.9347 21.2907 19.58 21.144C20.2547 20.9973 20.7827 20.924 21.164 20.924C21.428 20.924 21.5747 20.968 21.604 21.056L22.132 20.748C22.1613 20.7773 22.22 20.8067 22.308 20.836C22.396 20.836 22.4547 20.8213 22.484 20.792L22.924 20.924C23.0413 20.8653 23.1293 20.836 23.188 20.836C23.364 20.836 23.5547 20.8947 23.76 21.012C23.9947 21.1 24.1707 21.1293 24.288 21.1C24.4347 21.0413 24.5373 21.0267 24.596 21.056C24.684 21.056 24.772 21.056 24.86 21.056H25.036C25.124 21.056 25.212 21.0707 25.3 21.1C25.4173 21.1 25.5347 21.1587 25.652 21.276L25.872 21.32C25.96 21.408 26.004 21.5107 26.004 21.628C26.0627 21.7453 26.2387 21.8187 26.532 21.848C26.8253 21.8773 27.016 21.936 27.104 22.024C27.3387 22.2 27.4707 22.4933 27.5 22.904C27.5587 23.2853 27.588 23.6373 27.588 23.96C27.5587 24.2827 27.4267 24.6787 27.192 25.148C26.9867 25.588 26.7227 25.94 26.4 26.204C26.2533 26.3213 26.0333 26.4533 25.74 26.6C25.4467 26.7173 25.2267 26.82 25.08 26.908C24.7573 27.1133 24.4053 27.216 24.024 27.216C23.4667 27.216 23.188 27.0987 23.188 26.864C23.188 26.776 23.2907 26.688 23.496 26.6C23.6427 26.5413 23.7747 26.4827 23.892 26.424C24.0387 26.336 24.1707 26.2333 24.288 26.116C24.4053 26.0573 24.4787 26.028 24.508 26.028C24.5667 25.9987 24.6107 25.9693 24.64 25.94C24.6987 25.9107 24.7427 25.8813 24.772 25.852C24.8013 25.7933 24.86 25.7347 24.948 25.676C25.124 25.5293 25.344 25.2947 25.608 24.972C25.9013 24.62 26.1067 24.356 26.224 24.18C26.2533 24.0333 26.312 23.8427 26.4 23.608C26.5173 23.344 26.576 23.1093 26.576 22.904C26.576 22.728 26.532 22.596 26.444 22.508C26.4147 22.508 26.4 22.4933 26.4 22.464L26.356 22.376C26.1213 21.8773 25.652 21.5987 24.948 21.54C24.2733 21.452 23.7013 21.408 23.232 21.408C23.232 21.408 23.2027 21.3933 23.144 21.364C23.0853 21.3347 23.056 21.3493 23.056 21.408L22.088 21.496L22 21.408L21.076 21.584L20.988 21.54L20.02 21.804C20.0493 21.7453 20.0347 21.7307 19.976 21.76C19.9173 21.76 19.888 21.76 19.888 21.76L18.92 22.024L18.876 21.98L18.436 22.244C18.436 22.2147 18.4213 22.1853 18.392 22.156C18.3627 22.1267 18.348 22.112 18.348 22.112C18.3187 22.1413 18.2893 22.1853 18.26 22.244C18.2307 22.2733 18.1867 22.3027 18.128 22.332L18.04 22.288L17.424 22.508C17.424 22.5373 17.3653 22.552 17.248 22.552C16.456 22.904 15.5907 23.3147 14.652 23.784C13.7427 24.224 13.0387 24.8547 12.54 25.676L12.452 25.588L12.056 25.94C12.0267 25.9693 11.9827 26.0133 11.924 26.072C11.8947 26.1307 11.8507 26.2333 11.792 26.38C11.704 26.6147 11.572 26.8933 11.396 27.216C11.2493 27.5387 11.176 27.8467 11.176 28.14C11.176 28.4333 11.2347 28.712 11.352 28.976C11.4693 29.2107 11.5573 29.2693 11.616 29.152L12.012 29.416L12.144 29.9L12.232 29.856L12.804 30.296H12.892L13.596 30.868L14.124 31.176H14.476L15.004 31.352C15.0627 31.3813 15.1067 31.4253 15.136 31.484C15.1947 31.5133 15.268 31.484 15.356 31.396L15.796 31.704C15.8253 31.6747 15.8693 31.66 15.928 31.66C15.9867 31.66 16.0453 31.6893 16.104 31.748C16.1627 31.7773 16.2067 31.8067 16.236 31.836L16.324 31.792L17.864 32.408C17.9227 32.3787 17.996 32.364 18.084 32.364C18.2307 32.364 18.348 32.3933 18.436 32.452C18.5533 32.4813 18.6707 32.5107 18.788 32.54C18.8467 32.5693 18.92 32.6133 19.008 32.672C19.1253 32.7307 19.184 32.7747 19.184 32.804C19.2427 32.8333 19.3013 32.848 19.36 32.848C19.448 32.848 19.5213 32.848 19.58 32.848L19.976 32.98L20.372 33.2L20.768 33.244C20.768 33.244 20.8853 33.3027 21.12 33.42C21.384 33.508 21.648 33.596 21.912 33.684C22.2053 33.772 22.3667 33.8307 22.396 33.86L22.66 34.124L22.704 34.08L23.012 34.256C23.3347 34.4613 23.6573 34.8573 23.98 35.444C24.332 36.0013 24.508 36.6173 24.508 37.292C24.508 37.732 24.4347 38.172 24.288 38.612C24.1707 39.0227 24.024 39.36 23.848 39.624C23.408 40.2107 22.924 40.7387 22.396 41.208C21.8973 41.6773 21.4427 42.0733 21.032 42.396C20.8853 42.484 20.7827 42.5573 20.724 42.616C20.6653 42.6747 20.5773 42.704 20.46 42.704C20.372 42.7333 20.2987 42.7773 20.24 42.836C19.8293 43.0707 19.3747 43.276 18.876 43.452C18.3773 43.6573 17.9373 43.848 17.556 44.024C17.38 44.0827 17.2333 44.112 17.116 44.112C16.9987 44.1413 16.8813 44.1707 16.764 44.2C16.7347 44.2 16.676 44.2147 16.588 44.244C16.5293 44.3027 16.5 44.3173 16.5 44.288L16.192 44.508C16.1627 44.4787 16.1187 44.464 16.06 44.464C15.9427 44.464 15.8107 44.5227 15.664 44.64C15.5467 44.7573 15.4293 44.8013 15.312 44.772H15.268C15.18 44.772 15.0627 44.7867 14.916 44.816C14.7987 44.8747 14.7107 44.8747 14.652 44.816L14.08 45.036L13.992 44.816C13.9627 44.816 13.9187 44.8453 13.86 44.904C13.8307 44.992 13.7867 45.036 13.728 45.036C13.728 45.036 13.6693 45.0067 13.552 44.948C13.4347 44.8893 13.3467 44.9187 13.288 45.036L12.804 45.168C12.7747 45.0507 12.6867 44.992 12.54 44.992C12.4227 44.992 12.32 45.036 12.232 45.124L11.88 44.948V44.992L11.528 44.948L11.176 45.168ZM26.9253 45.344C26.3679 45.344 26.0893 44.904 26.0893 44.024V43.452C26.0893 43.276 26.1186 43.1 26.1773 42.924C26.2359 42.7773 26.3679 42.616 26.5733 42.44C26.9253 42.1173 27.2773 41.7947 27.6293 41.472C27.9813 41.1493 28.3186 40.812 28.6413 40.46C28.6999 40.4013 28.7586 40.372 28.8173 40.372C28.8759 40.3427 28.9199 40.3133 28.9493 40.284C29.0079 40.2253 29.0959 40.0933 29.2133 39.888C29.3306 39.6827 29.4626 39.5213 29.6093 39.404C29.7559 39.2867 29.8879 39.1987 30.0053 39.14C30.1226 39.052 30.1959 38.9053 30.2253 38.7C30.5479 38.3187 30.8706 37.9373 31.1933 37.556C31.5159 37.1453 31.8239 36.7347 32.1173 36.324C32.3519 36.2067 32.5866 35.8987 32.8213 35.4C33.0559 34.9013 33.2759 34.5347 33.4813 34.3C33.6279 34.3 33.7159 34.212 33.7453 34.036C33.7746 33.86 33.8186 33.7133 33.8773 33.596C34.2879 32.892 34.6693 32.2027 35.0213 31.528C35.3733 30.8533 35.6519 30.1347 35.8573 29.372C35.9159 29.2253 35.9746 29.108 36.0333 29.02C36.1213 28.9027 36.1799 28.7853 36.2093 28.668V28.492C36.2093 28.3747 36.1799 28.2573 36.1213 28.14C36.0919 27.9933 36.0919 27.8467 36.1213 27.7C36.1506 27.5533 36.1799 27.3333 36.2093 27.04C36.2386 26.7173 36.2826 26.512 36.3413 26.424C36.4293 26.2773 36.5026 26.2333 36.5613 26.292C36.6493 26.3507 36.7079 26.336 36.7373 26.248C36.7666 26.1893 36.7812 26.1013 36.7812 25.984C36.8106 25.8373 36.8253 25.7347 36.8253 25.676C36.8253 25.6467 36.8106 25.632 36.7812 25.632C36.7519 25.632 36.6639 25.6907 36.5173 25.808C36.3999 25.896 36.3413 25.9107 36.3413 25.852L36.2973 25.412C36.1799 25.236 36.0919 25.1187 36.0333 25.06C36.0039 24.972 36.0039 24.8253 36.0333 24.62V24.488C36.0333 24.2533 35.8719 24.1653 35.5493 24.224C35.1093 23.96 34.7279 23.828 34.4053 23.828C34.1119 23.828 33.8333 23.8867 33.5693 24.004C33.3053 24.092 33.0413 24.136 32.7773 24.136C32.5426 24.136 32.4253 24.0333 32.4253 23.828C32.4253 23.652 32.5426 23.5053 32.7773 23.388C33.0413 23.2413 33.3199 23.1387 33.6133 23.08C33.9066 23.0213 34.1266 22.992 34.2733 22.992C34.6546 22.992 35.0506 23.0507 35.4613 23.168C35.8719 23.2853 36.2239 23.4613 36.5173 23.696C37.0159 24.0773 37.3533 24.5613 37.5293 25.148C37.7346 25.7053 37.8373 26.2773 37.8373 26.864C37.8373 27.392 37.7933 27.92 37.7053 28.448C37.6173 28.9467 37.4999 29.4307 37.3533 29.9C37.2946 30.1347 37.2066 30.3693 37.0892 30.604C36.9719 30.8387 36.8693 31.0733 36.7812 31.308C36.7519 31.396 36.7226 31.5133 36.6933 31.66C36.6639 31.8067 36.6493 31.9533 36.6493 32.1C36.6493 32.3347 36.7079 32.452 36.8253 32.452C36.9133 32.452 37.0599 32.3493 37.2653 32.144C38.2626 31.1467 39.2453 30.1493 40.2133 29.152C41.2106 28.1547 42.2373 27.2013 43.2933 26.292C43.5279 26.0867 43.7626 25.896 43.9973 25.72C44.2319 25.544 44.4519 25.3533 44.6573 25.148C44.7159 25.06 44.8039 24.972 44.9213 24.884C45.0386 24.796 45.1266 24.7373 45.1853 24.708C45.5373 24.4733 45.8599 24.2387 46.1533 24.004C46.4466 23.74 46.7546 23.5053 47.0773 23.3C47.5173 23.036 47.9573 22.7867 48.3972 22.552C48.8666 22.288 49.3359 22.068 49.8053 21.892H49.8493C49.9373 21.8627 49.9959 21.8627 50.0252 21.892C50.0839 21.9213 50.1426 21.936 50.2013 21.936C50.2893 21.8773 50.3479 21.8187 50.3773 21.76C50.4359 21.7013 50.5239 21.6573 50.6412 21.628C51.0519 21.54 51.4626 21.496 51.8733 21.496C52.4599 21.496 53.0173 21.584 53.5453 21.76C54.0733 21.936 54.5133 22.2293 54.8653 22.64C54.9239 22.7867 54.9679 22.9187 54.9973 23.036C55.0266 23.124 55.1293 23.1973 55.3053 23.256C55.5106 23.6373 55.6426 24.0333 55.7013 24.444C55.7893 24.8253 55.8333 25.2213 55.8333 25.632C55.8333 26.1893 55.7893 26.732 55.7013 27.26C55.6719 27.4947 55.5986 27.744 55.4813 28.008C55.3933 28.2427 55.3639 28.492 55.3933 28.756L55.3493 28.844C55.1733 29.0787 55.1146 29.3133 55.1733 29.548L55.0853 29.856C54.9093 29.944 54.8213 30.076 54.8213 30.252C54.8213 30.3987 54.8213 30.56 54.8213 30.736H54.7773C54.3959 31.9093 53.9413 33.0533 53.4133 34.168C52.8853 35.2533 52.3279 36.324 51.7413 37.38C51.7413 37.4093 51.6826 37.5413 51.5653 37.776C51.4479 38.0107 51.3453 38.2453 51.2573 38.48C51.1986 38.7147 51.2279 38.832 51.3453 38.832C51.5213 38.832 51.6973 38.744 51.8733 38.568C52.0493 38.3627 52.1959 38.2013 52.3133 38.084C52.5479 37.8493 52.7386 37.6 52.8853 37.336C53.0613 37.0427 53.2519 36.7933 53.4573 36.588C53.5159 36.5 53.5893 36.4267 53.6773 36.368C53.7653 36.28 53.8533 36.2067 53.9413 36.148C54.0879 36.0307 54.2053 35.884 54.2933 35.708C54.3813 35.532 54.4839 35.3853 54.6013 35.268L55.5693 34.168C55.8039 34.168 55.9506 34.08 56.0093 33.904C56.0679 33.728 56.1559 33.5667 56.2733 33.42C56.3906 33.244 56.6546 32.936 57.0653 32.496C57.4759 32.056 57.7839 31.7627 57.9893 31.616C58.3119 31.3227 58.6786 31.176 59.0893 31.176C59.7053 31.176 60.2186 31.5427 60.6293 32.276C60.6879 32.3933 60.7906 32.672 60.9373 33.112C61.1133 33.552 61.2013 33.816 61.2013 33.904C61.2013 33.992 61.1719 34.0947 61.1133 34.212C61.0839 34.3 61.0839 34.3733 61.1133 34.432C61.1719 34.4907 61.2159 34.5053 61.2453 34.476C61.3039 34.4467 61.3479 34.5053 61.3773 34.652C61.4653 34.828 61.5239 35.048 61.5533 35.312C61.6119 35.576 61.6559 35.8107 61.6853 36.016C61.7146 36.1627 61.7146 36.324 61.6853 36.5C61.6853 36.6467 61.6999 36.7933 61.7293 36.94C61.7879 37.028 61.8319 37.1013 61.8613 37.16C61.8906 37.2187 61.9199 37.3067 61.9493 37.424C62.0666 37.8933 62.1986 38.3627 62.3453 38.832C62.4919 39.272 62.6533 39.712 62.8293 40.152L62.8733 40.196C62.8733 40.548 63.0053 40.7533 63.2693 40.812C63.7973 41.516 64.4719 41.868 65.2933 41.868C65.4106 41.868 65.5133 41.8533 65.6013 41.824C65.7186 41.7947 65.8359 41.7653 65.9533 41.736C66.1293 41.736 66.2759 41.78 66.3933 41.868C66.5399 41.956 66.4959 42.0733 66.2613 42.22C65.8213 42.5133 65.3666 42.66 64.8973 42.66C64.0466 42.66 63.3279 42.44 62.7413 42C62.1839 41.5307 61.7146 40.9587 61.3333 40.284C60.9813 39.6093 60.6733 38.92 60.4093 38.216L60.5413 38.084C60.7759 37.996 60.8933 37.9227 60.8933 37.864C60.8933 37.8053 60.8199 37.7613 60.6733 37.732C60.5559 37.6733 60.4239 37.6587 60.2773 37.688C59.9839 37.1893 59.7639 36.6613 59.6173 36.104C59.4999 35.5173 59.3093 34.96 59.0453 34.432C58.6933 33.6987 58.2973 33.332 57.8573 33.332C57.5639 33.332 57.2853 33.4787 57.0213 33.772C56.7573 34.036 56.4639 34.3293 56.1413 34.652L54.9093 36.016C54.6159 36.104 54.4546 36.3093 54.4253 36.632C53.8973 37.2187 53.3399 37.8347 52.7533 38.48C52.1959 39.096 51.5799 39.6387 50.9053 40.108C50.4653 40.4013 49.9666 40.548 49.4093 40.548C49.1452 40.548 48.9106 40.4893 48.7053 40.372C48.4999 40.2547 48.3972 40.0493 48.3972 39.756C48.3972 39.668 48.4266 39.5067 48.4853 39.272C48.6026 38.8907 48.7639 38.5533 48.9693 38.26C49.2039 37.9667 49.4239 37.6733 49.6293 37.38C49.8639 37.028 50.0986 36.588 50.3333 36.06C50.5973 35.5027 50.8319 35.092 51.0373 34.828C51.1253 34.6813 51.2133 34.5493 51.3013 34.432C51.4186 34.3147 51.4773 34.168 51.4773 33.992L51.8293 33.156C52.0639 33.068 52.1813 32.9507 52.1813 32.804C52.1813 32.6573 52.1959 32.496 52.2253 32.32C52.2546 32.144 52.3133 31.9827 52.4013 31.836C52.5186 31.66 52.5919 31.484 52.6213 31.308C52.7386 30.868 52.8999 30.4573 53.1053 30.076C53.3106 29.6653 53.4279 29.2253 53.4573 28.756V28.712C53.6333 28.0373 53.7799 27.3627 53.8973 26.688C54.0146 25.984 54.0733 25.2947 54.0733 24.62C54.0733 24.004 53.9559 23.5053 53.7213 23.124C53.5159 22.7427 53.0613 22.552 52.3573 22.552C52.1519 22.552 51.9173 22.5227 51.6532 22.464C51.3893 22.4053 51.1399 22.4053 50.9053 22.464C50.8466 22.4347 50.7733 22.42 50.6853 22.42C50.5679 22.42 50.4213 22.508 50.2453 22.684L50.0693 22.728L49.8933 22.684C49.7759 22.684 49.6586 22.7427 49.5413 22.86C49.4533 22.9773 49.3506 23.08 49.2333 23.168H49.1893C48.1919 23.6373 47.2533 24.2093 46.3733 24.884C45.4933 25.5293 44.6279 26.1893 43.7773 26.864C43.7479 26.8933 43.6893 26.9373 43.6013 26.996C43.5133 27.0253 43.4546 27.0693 43.4253 27.128C42.3106 28.0373 41.2253 29.0053 40.1693 30.032C39.1426 31.0587 38.1306 32.0853 37.1333 33.112C36.8986 33.112 36.7519 33.244 36.6933 33.508C36.5466 33.5667 36.4586 33.6547 36.4293 33.772C36.4293 33.8893 36.3999 34.0213 36.3413 34.168C36.1653 34.3733 35.9599 34.5787 35.7253 34.784C35.4906 34.9893 35.2999 35.2093 35.1533 35.444C35.0359 35.6493 34.8159 35.928 34.4933 36.28C34.1999 36.632 33.9653 36.896 33.7893 37.072C33.6719 37.1893 33.5253 37.292 33.3493 37.38C33.2026 37.468 33.1293 37.6293 33.1293 37.864C33.0119 38.04 32.8799 38.2307 32.7333 38.436C32.5866 38.612 32.4399 38.7733 32.2933 38.92C31.9999 39.2427 31.7506 39.6093 31.5453 40.02C31.3693 40.4013 31.1199 40.7387 30.7973 41.032C30.7386 41.12 30.6213 41.2227 30.4453 41.34C30.2986 41.4573 30.1959 41.5453 30.1373 41.604C30.1079 41.6627 30.0933 41.7213 30.0933 41.78C30.1226 41.8093 30.1079 41.8827 30.0493 42C29.8439 42.3813 29.6093 42.7627 29.3453 43.144C29.1106 43.5547 28.8613 43.936 28.5973 44.288C28.3919 44.5813 28.1279 44.8307 27.8053 45.036C27.4826 45.2413 27.1893 45.344 26.9253 45.344Z" fill="white"/>
</svg>
